<?xml version="1.0" encoding="utf-8"?>
<svg viewBox="0 0 615.032 104.902" xmlns="http://www.w3.org/2000/svg">
  <g transform="matrix(1, 0, 0, 1, -25.287273, -5.715016)">
    <path class="st0" d="M193.5,76.5c-4.7-7-20.7-6.6-18.1-12.7c1.2-1.3,4-1.8,7-0.6c2.7,1,3.7,2.1,6.3,0.4c2.5-1.7,0.4-7.9-8.7-9.9 c-14.4-3.3-21.1,9.9-15.1,16.9c4.8,6.1,18.7,6.6,17.6,12.1c-0.8,5.4-16.1,13.3-34.6,6.6c-10.8-3.9-12.1-8.6-10.2-15.4 c0.2-0.8,0.5-1.5,0.8-2.3c1.3,0,2.7-0.2,3.9-0.4c2.5-0.4,4.7-1.3,6.6-2.2c3.8-1.9,6.2-4.4,7.7-6.1c1.5-1.8,2.2-2.9,2.2-2.9 s-1.2,0.6-3.2,1.6c-2,1-4.9,2.3-8.4,3c-1.7,0.4-3.6,0.5-5.5,0.5c-0.3,0-0.6-0.1-0.9-0.1c7.4-16.9,17.3-23.1,17.5-32.8 c0.3-11.2-12.8-13-12.8-13s2.1,3.8,0.2,10c-3.4,11.5-10.7,22-15.1,33.1c-2.1-1-4-2.4-5.3-4c-2.3-2.9-3-7.1-3-11.4 c0.1-4.3,0.9-8.6,1.6-12.2c0.8-3.7,1.6-6.8,2.2-9c0.6-2.2,0.9-3.5,0.9-3.5s-3.9,3.7-7.7,10.8c-1.8,3.6-3.7,8-4.4,13.3 c-0.4,2.6-0.5,5.5,0,8.5c0.5,3,1.8,6.1,3.8,8.7c2,2.6,4.8,4.5,7.5,5.7c0.6,0.3,1.3,0.4,1.9,0.6c-0.4,1.5-0.7,2.9-0.9,4.4 c-0.7,3.6-1.6,10.8,7,17.3c5.2,3.7,14.1,7.9,31.1,7.4c8.3,0,18.4-1.8,24.8-7.6c0,0,0.1-0.1,0.1-0.1c0.1-0.1,0.3-0.2,0.5-0.4l0,0 C195.2,87.1,196.6,81.1,193.5,76.5z" style="fill: rgb(252, 207, 16);"/>
    <path class="st0" d="M112,68.6c-2.8-3.8-7.9-0.8-19.4,9.4c-5.5,5-7.1,6.7-8.7,6.9c-2.4,0.3-3.6-7.2,5.1-19.6c0,0-3.5,0.1-13.4,6.7 l0,0c-22.5,15-30.1,14.2-33,11.8c-11.8-9.7,18.1-49,35.6-50.5c11.2-1,2.4,14.3-4.4,23.1c0,0,6.5,0.7,16.5-4.4 c10.8-5.5,23.9-24.9,15-39.6C94.8-4.8,56.2,12.8,34.8,46.8c-14.4,22.9-12.7,48.3,6.8,48.3c5,0,15-2.8,30.4-12.9 c-2.2,5.2-3.2,12.5,2.3,14.6c8.5,3.3,25.1-22.9,27.9-17.4c0.5,1,0.6,6.2,0.7,13.6c0,0.5,0,1,0,1.6c0,0.2,0,0.4,0,0.6 c0,0.1,0,0.1,0,0.2c0,0.1,0,0.3,0,0.4c0,0.2,0,0.4,0.1,0.5c0.5,5.4,2.7,11.3,8.8,11.9c11.4,1.1,12.9-12.6,12.9-12.6 C114.3,97.9,117.3,75.8,112,68.6z" style="fill: rgb(252, 207, 16);"/>
    <path class="st0" d="M526.6,66.7L526.6,66.7c-0.5-3.4-3.6-4.3-6-1.9c0,0-3-5.9-9.1-2.9c-5.6,2.7-14.2,10.8-14.5,20.3 c-0.4,9.5,8,15.4,21.7,0.5c0.1-0.1,0.2-0.3,0.4-0.4c8.2,12.6,17.5,6.9,17.5,6.9C528.9,82.8,526.6,66.7,526.6,66.7z M507.8,82.8 c-5.9-2.3,5.1-17.5,10.9-13C520.9,71.5,512,84.4,507.8,82.8z" style="fill: rgb(252, 207, 16);"/>
    <path class="st0" d="M434.9,56.5L434.9,56.5c0,0-1.7-7.4,2.3-8c3.1-0.5,4.4,1.9,5.7,9c0.5,2.6,2.4,4.9,4.7,4 c2-0.8,4.1-2.3,2.7-12.6c-0.9-6-6.5-13.1-15.1-13.7c-12.3-0.8-14.8,12.9-13,24.6c2.5,16.1,8.1,36.7-1.2,37.9 c-8.6,1.1-10.4-13-10.4-18.3h0c0,0-0.3-4.5,2.1-4.8c2.4-0.4,4.4,1.5,7.1,6.4c0,0-2.3-9.7-9.2-10.1c-7.8-0.4-6.2,18,0.2,27.6 c6.4,9.5,21.4,9.9,25.9-1.3c4.4-11.2,2.7-20.3-0.4-32.9C435.4,61.2,435,58.6,434.9,56.5z" style="fill: rgb(252, 207, 16);"/>
    <path class="st0" d="M636.7,71.7c-2.6-5-7.8-8.7-12.7-12.4c-0.1-0.1-0.2-0.2-0.4-0.3c-5.1-3.9-9.9-7.2-7.1-10.1 c2.3-2.4,6.8,0.3,9.7,2.1c0.5,0.3,1.1,0.6,1.6,1l0-0.1c0,0,0.1,0.1,0.1,0.1c2.5,1.4,6.5,2.9,8.4-0.2c1.6-2.6-0.6-5-1.7-6 c-3.5-2.8-8.1-6.2-14.7-7.4c-9.3-1.7-17.2,5.3-15.5,14.5c0.9,4.7,5,9.3,12.5,15.9c0,0,8,7.1,7.7,13.3c0,0,0,0.1,0,0.1 c-0.1,0.7-0.2,1.5-0.4,2.2c0,0,0,0,0,0c-1.7,5.4-8,10.8-19.4,11.6c-19.4,1.2-24.6-12.2-23.9-19c12,1.7,22.7-8.3,20.3-16.8 c-1.8-6.5-12.5-6.5-22,2.1c-1.9,1.7-3.1,3.3-4.2,5c-0.1,0.1-0.3,0.3-0.4,0.5c-0.8-1-1.5-2.1-1.9-3.4c-0.4-1.1-0.6-2.3-0.8-3.5 c0-1.4-0.2-2.7,0.2-4c0.1-1.3,0.6-2.5,1-3.7c0.4-1.2,1.1-2.2,1.6-3.2c0.6-0.9,1.2-1.7,1.8-2.5c0.5-0.8,1.2-1.3,1.6-1.8 c0.9-1,1.5-1.6,1.5-1.6s-0.7,0.4-1.9,1c-0.6,0.4-1.4,0.7-2.1,1.4c-0.7,0.6-1.6,1.4-2.5,2.3c-0.7,1-1.7,2-2.4,3.3 c-0.6,1.3-1.4,2.7-1.7,4.3c-0.5,1.5-0.5,3.3-0.5,5c0,0.2,0.1,0.4,0.1,0.5c0.2,3.6,1.5,7.8,4.2,10.9c-0.1,0.3-0.1,0.5-0.2,0.8 c-0.1,0.5-0.2,1.1-0.3,1.6c0,0,0,0.1,0,0.2l0,0c-1.6,9.9,2.9,20.4,16.5,24.7c0,0,0,0,0,0s6.9,2.9,20.9,2c14-1,20.2-7.3,22.3-9.8 c0,0,0-0.1,0.1-0.1c3.2-3.4,5.1-7.3,5.9-10.8C638.5,77.7,638,74.5,636.7,71.7z M594.5,64.3c0.8,1.3-0.2,4.4-4,6.1 c-2.8,1.1-5.4,1.5-7.8,1.4C586.1,66,592.7,61.2,594.5,64.3z" style="fill: rgb(252, 207, 16);"/>
    <path class="st0" d="M480.4,66.9c-4.3-1.2-9.2,1.3-12.6,3.7c-1.6,1.1-3,2.2-4.1,3.2c0.8-2.9,1.7-5.8,2.5-8.3 c6.9-5.1,12-10.2,15.9-16c5-7.6,4.7-13.6,2-16l0.1,0c0,0-0.1-0.1-0.2-0.2c-1.1-0.9-2.7-1.2-4.4-0.8c-2.9,0.5-7,2.9-11.6,10.7 c-2.2,3.8-4.6,9.1-6.8,14.6l0,0L461,58c-1,2.4-1.9,4.9-2.8,7.3c-8.7,4.1-13.3,2.5-14.9,1.7c-2.8-1.8-3.8-4.4-3.8-4.4 c1.3,10.2,13.3,9.2,17.2,6.7c-1.7,4.5-4.3,12.4-5.2,15.4c-0.1,0.4-0.2,0.8-0.3,1.1l0,0c0,0-2.2,5.3,1.7,6c3.7,0.7,6.5-6.1,9.7-9.9 c1-1.2,2.1-2.3,3.3-3.4l0,0c0,0,4.7-4.7,8.5-3.6c2.5,0.8,2.7,2.9,2.2,5.6c0,0,0,0.1,0,0.1c-0.7,3.8-4.7,22.3,6.9,23.4 c10.4,1,14.2-9.9,14.2-9.9C485.9,99.2,489.1,69.5,480.4,66.9z M473.7,44.8c1-2.3,2.4-4.8,3.7-6.6c3.9-3.6,6.1-1,4.2,4.4 c-0.3,1-0.8,2-1.3,3.1c-0.2,0.5-3.6,6.7-11.9,13.2C470.8,51.8,472.8,46.8,473.7,44.8z" style="fill: rgb(252, 207, 16);"/>
    <path class="st0" d="M560.4,62.3c-0.3-0.1-0.5-0.1-0.7-0.1c-0.9,0-1.8,0.5-2.4,2.2c-1.3,4.2-1.6,10.7-5.1,15.4 c0.6-5.8-0.2-10.2-1.4-13.2c-5.4-13.1-18.5-7.3-18.5-7.3c5.4,3.3,11.4,8.6,10.7,28.3c0,0,2.5,7.2,6.8,3.9c0,0,0.1,0,0.2-0.1 c1-0.7,2.6-2.1,4.5-4c3.7-3.5,8.5-8.8,9.8-13.8C566.6,65.3,564.8,63.6,560.4,62.3z" style="fill: rgb(252, 207, 16);"/>
    <path class="st0" d="M267.5,63.2c0.4-4-4.1-9.7-15.3-3.9c-14.9,7.7-25.7,23.8-18.1,30.3c5.7,4.9,14.7,1.7,23.5-8.2 c-0.4,4.2,1.7,12.3,8.9,14c1.6,0.4,3,0.5,4.1,0.6c-6.4-9.7,2.8-28.8,2.8-28.8l0,0c1.3-2.9,1.3-2.9,2.2-4.6 C276.7,60.6,268.9,62.6,267.5,63.2z M256.6,76.5c-5,4.8-9.5,7.5-11.8,6.5c-2.6-1.1,0.5-7,5.5-11.8c7-6.7,11.8-6.9,12.6-5.8 C264.2,66.9,261.6,71.6,256.6,76.5z" style="fill: rgb(252, 207, 16);"/>
    <path class="st0" d="M318.8,55.2c-5.6-6.8-22.9,7.6-24.2,9.4c-0.4-6-6.8-9.3-12.3-6.8c0,0,2.7,3.8,1,11.6c-5.1,22.6-7,21.8-8,22.8 c1.5,0.3,2.8,0.4,3.9,0.4l0,0c0,0,5.6,0.5,8.7-5.3c2.3-4.2,3.8-9.7,7.2-15.1c0.2-0.3,0.3-0.5,0.5-0.8c0.3-0.4,0.6-0.9,0.9-1.3 c0.3-0.5,0.7-0.9,1-1.3c0.6-0.7,1.2-1.4,1.9-2.2c4.3-4.6,7.7-5.1,9.1-3c2.4,3.5-7.5,23.7-6.6,33.5c0.1,0.9,0.8,4.4,3.8,5.2 c0.3,0.1,0.6,0.1,1,0.1c0.2,0,0.3,0,0.5,0c0.3,0,0.5,0,0.8,0c5.2-0.8,10.6-4.6,13.6-10.6C312.1,94.8,323,60.3,318.8,55.2z" style="fill: rgb(252, 207, 16);"/>
    <path class="st0" d="M349.4,22.7c-0.7-0.1-1.3-0.2-2-0.4c0,0,9.2,4.6,10.5,12c0.3,1.4,0.5,2.9,0.3,4.7c-0.4,6.6-2.1,13.7-4.1,20.9 c-0.6-1.3-1.8-2.3-4.1-2.6c-4.9-0.6-15.5,4.5-22.1,16.6c-4.4,8.1-4.8,15.3,0.1,18.5c4.3,2.8,14.3-1.9,20.2-10 c-0.2,1-0.4,2.1-0.6,3.1c-1.2,7.6-0.3,19.1,7.6,19.6c0.7,0,1.4-0.1,2-0.2c-1.9-2.6-2.4-6.1-2.4-9.5c0-1.8,0.2-4,0.6-6.4 c0.5-2.5,1-4.3,1-4.3h0c1-3.9,2.5-8.2,4.5-12.7c6.4-14.8,11.4-19.3,14-25.9C378.4,37.9,371.1,27,349.4,22.7z M338.5,82.1 c-5.5-2.7,5.5-20.6,9.8-18.4C352.6,65.9,343.4,84.6,338.5,82.1z" style="fill: rgb(252, 207, 16);"/>
  </g>
</svg>